<svg xmlns="http://www.w3.org/2000/svg" xmlns:xlink="http://www.w3.org/1999/xlink" width="460" height="102.478" viewBox="0 0 460 102.478">
  <defs>
    <linearGradient id="linear-gradient" x1="1" y1="0.265" x2="0" y2="0.238" gradientUnits="objectBoundingBox">
      <stop offset="0" stop-color="#ea492f"/>
      <stop offset="1" stop-color="#ff8900"/>
    </linearGradient>
    <linearGradient id="linear-gradient-2" y1="0.5" x2="1" y2="0.542" gradientUnits="objectBoundingBox">
      <stop offset="0" stop-color="#ea492f"/>
      <stop offset="1" stop-color="#d31d00"/>
    </linearGradient>
    <linearGradient id="linear-gradient-3" x1="1" y1="0.5" x2="0" y2="0.542" xlink:href="#linear-gradient-2"/>
  </defs>
  <g id="Group_115" data-name="Group 115" transform="translate(-432 -5159)">
    <g id="Group_108" data-name="Group 108" transform="translate(-48 4230)">
      <path id="Path_446" data-name="Path 446" d="M336.57,1791.93v17.141a8.463,8.463,0,0,0,.347,2.567c.344.633.745,1.577,3.318,1.9,1.518.167,4.555,1.117,8.4,3.953,7.6,5.615,10.95,13.445,18.357,18.625,3.311,2.315,5.913,2.979,8.291,3,1.413-.082,2.109-.443,2.578-1.311a7.342,7.342,0,0,0,.4-2.784v-19.528s-3.863,2.037-11.269-3.577-10.753-13.353-18.357-18.875c-4.593-3.336-8.037-3.814-10.559-3.617C336.38,1789.521,336.57,1791.93,336.57,1791.93Z" transform="translate(308.776 -838.914)" fill="url(#linear-gradient)"/>
      <path id="Path_447" data-name="Path 447" d="M336.878,1791.911v23.555s4.456-3.614,12.06,2,10.95,13.446,18.357,18.625c3.311,2.316,5.913,2.979,8.291,3,1.413-.082,2.109-.443,2.578-1.311a7.342,7.342,0,0,0,.4-2.784v-19.527s-3.863,2.036-11.269-3.577-10.753-13.353-18.357-18.875c-4.593-3.335-8.037-3.814-10.559-3.616C336.688,1789.5,336.878,1791.911,336.878,1791.911Z" transform="translate(350.106 -838.932)" fill="url(#linear-gradient-2)"/>
      <path id="Path_448" data-name="Path 448" d="M721.051,1553.292a3.323,3.323,0,0,0-.73,2.1l-.029,23.444a28.744,28.744,0,0,0,9.774-9.662,57.122,57.122,0,0,0,5.238-12.74c.624-2.072.375-2.682-.117-3.37s-2.759-.538-2.759-.538H723.2A3.236,3.236,0,0,0,721.051,1553.292Z" transform="translate(8.199 -602.103)" fill="url(#linear-gradient-3)"/>
      <g id="Group_106" data-name="Group 106" transform="translate(480 929)">
        <path id="Path_449" data-name="Path 449" d="M13.725-10.606v-1.949a36.489,36.489,0,0,1,.835-8.4,12.159,12.159,0,0,1,2.971-5.709,12.786,12.786,0,0,1,5.756-3.3,33.142,33.142,0,0,1,9.19-1.068H43.709a1.477,1.477,0,0,1,1.671,1.671v7.612a1.477,1.477,0,0,1-1.671,1.671h-9q-4.549,0-6.173,1.81t-1.625,5.709v1.949H43.152a1.477,1.477,0,0,1,1.671,1.671v7.612A1.477,1.477,0,0,1,43.152.348H26.907V38.316a1.805,1.805,0,0,1-2.042,2.042h-9.1a1.805,1.805,0,0,1-2.042-2.042V.348H4.813A1.477,1.477,0,0,1,3.142-1.323V-8.935a1.477,1.477,0,0,1,1.671-1.671Zm83.132,0a43.965,43.965,0,0,1,10.49,1.068A15.855,15.855,0,0,1,114.17-6.2a12.709,12.709,0,0,1,3.667,5.848,29.068,29.068,0,0,1,1.114,8.587V21.607a29.068,29.068,0,0,1-1.114,8.587,12.709,12.709,0,0,1-3.667,5.848,15.477,15.477,0,0,1-6.823,3.3,45.885,45.885,0,0,1-10.49,1.021H62.045V58.832A1.805,1.805,0,0,1,60,60.874h-9.1q-2.135,0-2.135-2.042V8.239A29.067,29.067,0,0,1,49.884-.348,12.709,12.709,0,0,1,53.551-6.2a15.838,15.838,0,0,1,6.777-3.342,43.843,43.843,0,0,1,10.536-1.068ZM62.045,29.219H95.558a22.254,22.254,0,0,0,5.013-.464,6.178,6.178,0,0,0,3.11-1.671,6.675,6.675,0,0,0,1.625-3.156,21.742,21.742,0,0,0,.464-4.92V10.745a21.871,21.871,0,0,0-.464-4.874,6.4,6.4,0,0,0-1.625-3.156,6.687,6.687,0,0,0-3.11-1.671A20.3,20.3,0,0,0,95.558.534H72.164a19.839,19.839,0,0,0-4.92.511,6.687,6.687,0,0,0-3.11,1.671,6.4,6.4,0,0,0-1.625,3.156,21.87,21.87,0,0,0-.464,4.874Zm71.877-39.268V-22.3a1.805,1.805,0,0,1,2.042-2.042h9.19A1.805,1.805,0,0,1,147.2-22.3v12.254h16.246a1.477,1.477,0,0,1,1.671,1.671V-.766A1.477,1.477,0,0,1,163.443.905H147.2V22.442q0,3.9,1.578,5.709t6.22,1.81h9a1.477,1.477,0,0,1,1.671,1.671v7.612A1.477,1.477,0,0,1,164,40.916H152.767a34.572,34.572,0,0,1-9.19-1.021,12.78,12.78,0,0,1-5.8-3.249,11.965,11.965,0,0,1-3.017-5.756,37.1,37.1,0,0,1-.835-8.448V.905H125.1a1.477,1.477,0,0,1-1.671-1.671V-8.378a1.477,1.477,0,0,1,1.671-1.671Zm181.357,0a43.965,43.965,0,0,1,10.49,1.068,15.854,15.854,0,0,1,6.823,3.342A12.709,12.709,0,0,1,336.26.209,29.066,29.066,0,0,1,337.374,8.8V22.164a29.066,29.066,0,0,1-1.114,8.587,12.709,12.709,0,0,1-3.667,5.848,15.477,15.477,0,0,1-6.823,3.3,45.885,45.885,0,0,1-10.49,1.021H289.008a45.759,45.759,0,0,1-10.536-1.021,15.456,15.456,0,0,1-6.777-3.3,12.71,12.71,0,0,1-3.667-5.848,29.071,29.071,0,0,1-1.114-8.587V8.8A29.071,29.071,0,0,1,268.028.209,12.71,12.71,0,0,1,271.7-5.639a15.838,15.838,0,0,1,6.777-3.342,43.844,43.844,0,0,1,10.536-1.068Zm-35.09,29.892a21.742,21.742,0,0,0,.464,4.92,6.369,6.369,0,0,0,1.625,3.11,6.687,6.687,0,0,0,3.11,1.671,19.84,19.84,0,0,0,4.92.511H313.98a20.3,20.3,0,0,0,5.013-.511,6.687,6.687,0,0,0,3.11-1.671,6.371,6.371,0,0,0,1.625-3.11,21.747,21.747,0,0,0,.464-4.92V11.024a21.245,21.245,0,0,0-.464-4.827A6.676,6.676,0,0,0,322.1,3.04a6.179,6.179,0,0,0-3.11-1.671A22.255,22.255,0,0,0,313.98.905H290.308a21.744,21.744,0,0,0-4.92.464,6.178,6.178,0,0,0-3.11,1.671A6.675,6.675,0,0,0,280.654,6.2a21.239,21.239,0,0,0-.464,4.827ZM390.36-10.049a1.477,1.477,0,0,1,1.671,1.671v7.8a1.477,1.477,0,0,1-1.671,1.671H365.667a19.84,19.84,0,0,0-4.92.511,6.688,6.688,0,0,0-3.11,1.671,6.4,6.4,0,0,0-1.624,3.156,21.871,21.871,0,0,0-.464,4.874V38.873a1.805,1.805,0,0,1-2.042,2.042h-9.1q-2.135,0-2.135-2.042V8.8A29.067,29.067,0,0,1,343.387.209a12.709,12.709,0,0,1,3.667-5.848,15.838,15.838,0,0,1,6.777-3.342,43.843,43.843,0,0,1,10.536-1.068Zm17.474-18.8a1.805,1.805,0,0,1,2.042,2.042V9.95h17.081a32.8,32.8,0,0,0,3.3-.139,8.578,8.578,0,0,0,2.367-.557,5.847,5.847,0,0,0,1.81-1.16,14.034,14.034,0,0,0,1.717-2.042l10.4-14.667a3.959,3.959,0,0,1,1.16-1.207,3.08,3.08,0,0,1,1.624-.371h10.49a1.218,1.218,0,0,1,1.3.789,1.854,1.854,0,0,1-.371,1.717L448.772,8.743a26.45,26.45,0,0,1-5.756,5.941,20.685,20.685,0,0,1,6.591,5.941L462.79,38.449a1.474,1.474,0,0,1,.232,1.532,1.3,1.3,0,0,1-1.346.789h-10.4a4.166,4.166,0,0,1-1.764-.278,3.345,3.345,0,0,1-1.114-1.021l-11.325-15.6a9.268,9.268,0,0,0-3.574-3.063,14.894,14.894,0,0,0-5.709-.835H409.876V38.728a1.805,1.805,0,0,1-2.042,2.042h-9.1q-2.135,0-2.135-2.042V-26.811q0-2.042,2.135-2.042Z" transform="translate(-3.142 31.029)" opacity="0.7"/>
        <path id="Path_458" data-name="Path 458" d="M14.407-24.156c0-2.771-2.074-4.446-5.224-4.446H3.96v13.956H5.535V-19.57H8.924C11.9-19.57,14.407-21.125,14.407-24.156Zm-1.6.06c0,1.854-1.515,3.09-3.828,3.09H5.535v-6.141H9.064C11.317-27.146,12.812-26.11,12.812-24.1ZM23-27.206V-28.9H21.246v1.695Zm-.12,12.561V-24.953H21.346v10.308Zm17.864-5.164a5.3,5.3,0,0,0-5.363-5.363A5.34,5.34,0,0,0,30-19.77a5.285,5.285,0,0,0,5.343,5.363A5.357,5.357,0,0,0,40.745-19.809Zm-1.575.04a3.8,3.8,0,0,1-3.788,3.988,3.872,3.872,0,0,1-3.808-4.027,3.787,3.787,0,0,1,3.768-4.007A3.894,3.894,0,0,1,39.17-19.77Zm10.068-.778a3.033,3.033,0,0,1,3.09-3.23c1.814,0,2.851,1.2,2.851,3.11v6.021h1.535v-6.4c0-2.452-1.455-4.127-3.948-4.127a3.9,3.9,0,0,0-3.529,2.014v-1.794H47.7v10.308h1.535Zm15.85,1.316h8.174a4.174,4.174,0,0,0,.02-.479c0-3.031-1.755-5.463-4.8-5.463a5.09,5.09,0,0,0-4.945,5.383,5.129,5.129,0,0,0,5.144,5.383,5.321,5.321,0,0,0,4.247-1.934l-.957-.857a4.266,4.266,0,0,1-3.25,1.455A3.612,3.612,0,0,1,65.089-19.231Zm0-1.136a3.553,3.553,0,0,1,3.35-3.509c2.054,0,3.13,1.635,3.29,3.509Zm15.99,1.136h8.174a4.172,4.172,0,0,0,.02-.479c0-3.031-1.755-5.463-4.8-5.463a5.09,5.09,0,0,0-4.945,5.383,5.129,5.129,0,0,0,5.144,5.383,5.321,5.321,0,0,0,4.247-1.934l-.957-.857a4.266,4.266,0,0,1-3.25,1.455A3.612,3.612,0,0,1,81.079-19.231Zm0-1.136a3.553,3.553,0,0,1,3.35-3.509c2.054,0,3.13,1.635,3.29,3.509Zm16.608,1.615c0-3.11,1.834-4.725,4.087-4.725h.12v-1.655a4.414,4.414,0,0,0-4.207,2.871v-2.692H96.151v10.308h1.535Zm12.521-8.454V-28.9h-1.754v1.695Zm-.12,12.561V-24.953h-1.535v10.308Zm9.291-5.9a3.033,3.033,0,0,1,3.09-3.23c1.814,0,2.851,1.2,2.851,3.11v6.021h1.535v-6.4c0-2.452-1.455-4.127-3.948-4.127a3.9,3.9,0,0,0-3.529,2.014v-1.794h-1.535v10.308h1.535Zm24.743,4.107v-8.513h-1.535V-23.1a4.833,4.833,0,0,0-4.027-2.074,4.792,4.792,0,0,0-4.845,4.885,4.758,4.758,0,0,0,4.845,4.845,4.887,4.887,0,0,0,4.047-2.173V-16.4c0,2.412-1.475,3.669-3.748,3.669a6.586,6.586,0,0,1-3.968-1.316l-.7,1.2a8.081,8.081,0,0,0,4.685,1.436C142.048-11.416,144.121-13.11,144.121-16.44Zm-1.475-3.868a3.628,3.628,0,0,1-3.788,3.509,3.481,3.481,0,0,1-3.569-3.529,3.4,3.4,0,0,1,3.569-3.489A3.615,3.615,0,0,1,142.646-20.308Zm29.787,2.891L163.64-28.6h-1.475v13.956H163.7V-26.09l9.012,11.444h1.256V-28.6h-1.535Zm10.328-1.814h8.174a4.172,4.172,0,0,0,.02-.479c0-3.031-1.755-5.463-4.8-5.463a5.09,5.09,0,0,0-4.945,5.383,5.129,5.129,0,0,0,5.144,5.383A5.321,5.321,0,0,0,190.6-16.34l-.957-.857a4.266,4.266,0,0,1-3.25,1.455A3.612,3.612,0,0,1,182.76-19.231Zm0-1.136a3.553,3.553,0,0,1,3.35-3.509c2.054,0,3.13,1.635,3.29,3.509Zm22.091-4.626h-1.276L200.8-16.679l-2.712-8.274h-1.635l3.609,10.387h1.356l2.791-8.135,2.771,8.135h1.336l3.629-10.387h-1.6l-2.712,8.274Zm34.711.837c0-2.771-2.074-4.446-5.224-4.446h-5.224v13.956h1.575V-19.57h3.389C237.05-19.57,239.562-21.125,239.562-24.156Zm-1.6.06c0,1.854-1.515,3.09-3.828,3.09H230.69v-6.141h3.529C236.472-27.146,237.967-26.11,237.967-24.1Zm11.923.359c1.934,0,3.07.957,3.07,2.811v.359a10.945,10.945,0,0,0-3.17-.439c-2.612,0-4.406,1.156-4.406,3.35,0,2.153,1.934,3.23,3.848,3.23A4.517,4.517,0,0,0,252.96-16.2v1.555h1.475v-6.3c0-2.712-1.575-4.147-4.386-4.147a8.512,8.512,0,0,0-3.748.857l.459,1.256A7.178,7.178,0,0,1,249.89-23.737Zm.06,3.868a10.752,10.752,0,0,1,3.031.439v1c0,1.635-1.555,2.791-3.449,2.791-1.4,0-2.592-.758-2.592-2.074S248.016-19.869,249.95-19.869ZM263.866-23.6h3.27v-1.356h-3.27v-3.11h-1.535v3.11H260.9V-23.6h1.435v6.221a2.624,2.624,0,0,0,2.911,2.911A3.861,3.861,0,0,0,267.1-14.9v-1.316a3.228,3.228,0,0,1-1.5.359,1.525,1.525,0,0,1-1.735-1.715Zm11.7,3.05a3.033,3.033,0,0,1,3.09-3.23c1.814,0,2.851,1.2,2.851,3.11v6.021h1.535v-6.4c0-2.452-1.455-4.127-3.948-4.127a3.9,3.9,0,0,0-3.529,2.014V-29.2h-1.535v14.554h1.535Zm22.011,3.011v-.04c0-1.854-1.715-2.472-3.31-2.951-1.376-.419-2.652-.8-2.652-1.774v-.04c0-.857.778-1.5,1.994-1.5a5.828,5.828,0,0,1,3.05,1l.7-1.156a7.047,7.047,0,0,0-3.708-1.136c-2.034,0-3.509,1.176-3.509,2.951v.04c0,1.894,1.794,2.452,3.409,2.911,1.356.379,2.572.778,2.572,1.814v.04c0,1-.9,1.635-2.133,1.635a6.026,6.026,0,0,1-3.569-1.316l-.778,1.1a7.089,7.089,0,0,0,4.267,1.515C295.966-14.446,297.581-15.583,297.581-17.537Z" transform="translate(162.419 113.893)" opacity="0.3"/>
      </g>
    </g>
  </g>
</svg>
